<!--?xml version="1.0" encoding="iso-8859-1"?-->
<!-- Generator: Adobe Illustrator 24.0.1, SVG Export Plug-In . SVG Version: 6.00 Build 0)  -->
<svg version="1.1" id="_x34_" xmlns="http://www.w3.org/2000/svg" xmlns:xlink="http://www.w3.org/1999/xlink" x="0px" y="0px" viewBox="0 0 512 410.7" style="opacity: 1; width: 256px;" xml:space="preserve">
<style type="text/css">
	.st0{fill:#F19B9A;}
	.st1{opacity:0.2;fill:#FFFFFF;}
	.st2{fill:#C37E69;}
	.st3{fill:#FAFAF8;}
	.st4{opacity:4.000000e-02;fill:#040000;}
	.st5{opacity:0.1;fill:#040000;}
	.st6{fill:#FFFFFF;}
	.st7{fill:#E7CF4F;}
</style>
<g>
	<path class="st0" d="M373,102.9L80.4,99.7c-42.8-0.5-78.3,34.2-78.7,77L0,328.8c-0.5,42.8,34.2,78.3,77,78.7l292.6,3.2
		c42.8,0.5,78.3-34.2,78.7-77l1.6-152C450.5,138.8,415.8,103.4,373,102.9z" style="fill: rgb(241, 155, 154);"></path>
	<path class="st1" d="M78.4,138.4c-20.1-0.2-36.6,15.9-36.8,36L41,234.5c0,2.1,0.3,4.2,0.9,6.2c3.4,11.2,17.8,14.5,26.1,6.3
		l82.6-80.8c10.1-9.9,3.2-27-10.9-27.2L78.4,138.4z"></path>
	<g>
		<path class="st2" d="M171.1,255.4c-1.3-1.4-2.9-2.4-4.8-3.2c-1.9-0.8-4.3-1.4-7.1-1.8l-7.5-1.2c-1.3-0.2-2.5-0.5-3.4-0.9
			c-0.9-0.4-1.7-0.9-2.3-1.5c-0.6-0.7-1.1-1.4-1.3-2.1c-0.3-0.8-0.4-1.6-0.4-2.4c0-2.2,0.8-4,2.4-5.6c1.6-1.5,4-2.3,7.3-2.3
			c2.1,0,4.2,0.3,6.5,0.8c2.3,0.5,4.4,1.7,6.3,3.6l7.9-7.6c-2.7-2.7-5.6-4.6-8.9-5.7c-3.2-1.2-7-1.8-11.4-1.8
			c-3.4,0-6.5,0.4-9.2,1.3c-2.7,0.9-5,2.2-6.9,3.9c-1.9,1.7-3.4,3.6-4.4,6c-1,2.3-1.6,4.9-1.6,7.7c-0.1,5.4,1.4,9.5,4.4,12.4
			c1.4,1.4,3.1,2.5,5,3.4c1.9,0.9,4.3,1.5,7.1,2l7.5,1.2c1.6,0.3,2.8,0.5,3.5,0.8c0.8,0.3,1.5,0.8,2.1,1.3c1.3,1.3,1.9,3.1,1.9,5.2
			c0,2.5-1,4.5-2.9,5.8c-1.9,1.3-4.7,2-8.4,1.9c-2.9,0-5.6-0.4-8.2-1.2c-2.6-0.8-4.9-2.2-6.8-4.2l-8,7.9c3,3.2,6.4,5.4,10.1,6.6
			c3.7,1.2,8,1.9,12.7,1.9c3.3,0,6.4-0.4,9.2-1.2c2.9-0.8,5.4-2,7.5-3.6c2.1-1.6,3.8-3.6,5-5.9c1.2-2.3,1.8-5,1.9-8.1
			c0-2.8-0.3-5.4-1.1-7.6C174,258.8,172.8,256.9,171.1,255.4z" style="fill: rgb(241, 155, 154);"></path>
		<path class="st2" d="M218.6,246.8c-1.5-1.5-3.3-2.9-5.7-4c-2.3-1.1-5.2-1.7-8.6-1.8c-3.4,0-6.3,0.5-8.6,1.6
			c-2.3,1.1-4.2,2.4-5.7,3.9c-2.1,2.2-3.5,4.7-4.2,7.4c-0.7,2.7-1.1,6.2-1.2,10.4c0,4.2,0.3,7.7,0.9,10.4c0.7,2.8,2,5.3,4.1,7.5
			c1.5,1.5,3.3,2.9,5.6,4c2.3,1.1,5.1,1.7,8.5,1.8c3.4,0,6.3-0.5,8.6-1.6c2.3-1.1,4.3-2.4,5.7-3.9c2.1-2.2,3.6-4.6,4.3-7.4
			c0.7-2.8,1.1-6.3,1.1-10.4c0-4.2-0.3-7.6-0.9-10.4C222,251.6,220.6,249.1,218.6,246.8z M211.6,271.1c-0.3,1.9-1.1,3.5-2.3,4.7
			c-1.4,1.3-3.2,2-5.4,2c-2.2,0-3.9-0.7-5.3-2.1c-1.2-1.2-1.9-2.8-2.2-4.7c-0.3-1.9-0.4-4.1-0.4-6.5c0-2.4,0.2-4.5,0.5-6.4
			c0.3-1.9,1.1-3.5,2.3-4.7c1.4-1.3,3.1-2,5.3-2c2.2,0,4,0.7,5.4,2.1c1.2,1.2,1.9,2.8,2.2,4.7c0.3,1.9,0.4,4.1,0.4,6.5
			C212.1,267,211.9,269.2,211.6,271.1z" style="fill: rgb(241, 155, 154);"></path>
		<path class="st2" d="M250,241.5c-3.8,0-7,0.4-9.5,1.3c-2.5,0.9-4.9,2.6-7.1,5l7.2,7.2c1.2-1.4,2.5-2.4,3.8-3c1.3-0.6,3-0.9,5-0.9
			c3.1,0,5.2,0.6,6.6,1.8c1.3,1.2,2,3,1.9,5.5l0,2.3l-10.7-0.1c-2.7,0-5.1,0.3-7.1,1c-2,0.7-3.7,1.6-5,2.8c-1.3,1.2-2.3,2.6-3,4.2
			c-0.7,1.6-1,3.3-1,5.2c0,2.1,0.3,4,0.9,5.7c0.6,1.8,1.6,3.3,2.8,4.6c2.7,2.7,6.6,4.1,11.7,4.2c2.6,0,4.8-0.3,6.5-1
			c1.7-0.7,3.3-1.8,4.8-3.3l0,4l11.2,0.1l0.3-30.3C269.5,247.1,263,241.6,250,241.5z M257.8,271.2c0,1.5-0.2,2.7-0.4,3.6
			c-0.3,0.9-0.7,1.7-1.4,2.2c-1,0.9-2,1.5-3.1,1.8c-1.1,0.3-2.3,0.4-3.7,0.4c-2.4,0-4.2-0.5-5.3-1.5c-1.1-1-1.7-2.2-1.6-3.8
			c0-3.5,2.3-5.3,6.9-5.2l8.7,0.1L257.8,271.2z" style="fill: rgb(241, 155, 154);"></path>
		<path class="st2" d="M320.1,260.1c-0.1-1.8-0.3-3.6-0.6-5.2c-0.3-1.7-0.8-3.2-1.4-4.6c-0.6-1.5-1.5-2.7-2.6-3.9
			c-1.3-1.4-2.9-2.4-4.8-3.1c-1.9-0.7-4-1.1-6.3-1.1c-2.5,0-4.6,0.3-6.4,1c-1.8,0.7-3.5,1.9-5.1,3.7l0-4.3l-11.1-0.1l-0.7,62.9
			l11.5,0.1l0.2-20.9c1.5,1.7,3.1,2.9,4.9,3.6c1.8,0.7,3.9,1.1,6.2,1.1c2.2,0,4.3-0.3,6.3-1c2-0.7,3.6-1.7,4.9-3
			c1.1-1.1,2-2.4,2.6-3.8c0.6-1.4,1.1-3,1.5-4.7c0.3-1.7,0.6-3.4,0.7-5.2c0.1-1.8,0.2-3.7,0.2-5.6
			C320.2,263.8,320.2,261.9,320.1,260.1z M308.4,270.8c-0.2,1.6-0.6,3-1.1,4.2c-0.5,1.2-1.3,2.1-2.4,2.8c-1,0.7-2.4,1-4.1,1
			c-1.7,0-3.1-0.4-4.1-1.1c-1-0.7-1.8-1.6-2.3-2.8c-0.5-1.2-0.9-2.6-1-4.2c-0.2-1.6-0.2-3.3-0.2-5.2c0-1.8,0.1-3.5,0.3-5.2
			c0.2-1.6,0.6-3,1.1-4.2c0.5-1.2,1.3-2.1,2.4-2.8c1-0.7,2.4-1,4.1-1c1.7,0,3.1,0.4,4.1,1.1c1,0.7,1.8,1.6,2.3,2.8
			c0.5,1.2,0.9,2.6,1,4.2c0.2,1.6,0.2,3.3,0.2,5.2C308.7,267.5,308.6,269.2,308.4,270.8z" style="fill: rgb(241, 155, 154);"></path>
	</g>
	<path class="st3" d="M512,117.5c0.3-26.6-21-48.4-47.6-48.6c-4.3,0-8.5,0.5-12.5,1.6c-3.3-23.1-23-41-47.1-41.3
		c-10.6-0.1-20.5,3.3-28.5,9c-8.1-14.8-23.7-25-41.7-25.1c-18.6-0.2-34.8,10.2-43,25.5c-7.5-5-16.5-8-26.2-8.2
		c-26.6-0.3-48.4,21-48.6,47.6c0,4.4,0.5,8.6,1.6,12.6c-19.7,5.9-34.1,24-34.3,45.6c-0.3,26.6,21,48.4,47.6,48.6
		c15.6,0.2,29.5-7.1,38.4-18.6c8.2,6.7,18.6,10.8,30,10.9c5.6,0.1,11-0.9,16.1-2.6c6.4,18.8,24,32.4,45,32.6c2.8,0,5.6-0.2,8.2-0.7
		c-0.4,2.3-0.6,4.6-0.6,7c-0.3,26.6,21,48.4,47.6,48.6c24,0.3,44-17.1,47.9-40c25.9-0.5,46.9-21.4,47.2-47.5
		c0.1-10.7-3.3-20.6-9.2-28.7C508.2,138,511.9,128.2,512,117.5z"></path>
	<path class="st4" d="M449.3,249.5l-0.2,20.2c-9.7,5.6-21.1,8.7-33,8.6c-32.2-0.3-58.7-24.6-62.9-55.6c-19.1-2.5-36-13.5-46-29.7
		c-2.4,0.2-4.8,0.4-7.3,0.3c-9.5-0.1-18.9-2.4-27.5-6.6c-11.5,9.3-25.7,14.3-40.9,14.2c-35.5-0.4-64-29.5-63.6-64.9
		c0.1-13,4.1-25.1,10.9-35.3l21.1,0.2c-9.7,8.6-15.8,21.2-15.9,35.2c-0.3,26.5,21,48.3,47.6,48.6c15.6,0.2,29.5-7.1,38.4-18.5
		c8.2,6.7,18.6,10.8,30,11c5.6,0.1,11.1-0.9,16.1-2.6c6.4,18.8,24.1,32.4,45,32.6c2.8,0,5.6-0.3,8.3-0.6c-0.4,2.3-0.6,4.6-0.6,7
		c-0.3,26.5,21,48.4,47.5,48.7C429,262.4,440.6,257.5,449.3,249.5z"></path>
	<g>
		<path class="st5" d="M442.3,362.7c-11.9,28.4-40.1,48.3-72.7,48l-292.6-3.2c-32.5-0.4-60.4-20.9-71.6-49.5
			c14.1,18.2,36,30.1,60.7,30.4l314.8,3.4C405.6,392.1,427.7,380.6,442.3,362.7z"></path>
		<path class="st5" d="M502.2,146c5.9,8.1,9.3,18,9.2,28.7c-0.3,26.1-21.3,47.1-47.2,47.5c-3.9,22.9-23.9,40.3-47.9,40
			c-18.3-0.2-34.1-10.6-42.1-25.8c6.8,3.7,14.5,5.9,22.8,6c23.9,0.3,44-17.1,47.9-40c25.9-0.5,46.9-21.4,47.2-47.5
			c0.1-10.7-3.3-20.6-9.2-28.7c6-7.9,9.7-17.8,9.8-28.5c0.1-8.3-1.9-16-5.5-22.9c14.9,8.3,25,24.3,24.8,42.6
			C511.9,128.2,508.2,138,502.2,146z"></path>
	</g>
	<path class="st6" d="M352.7,67.1c-2.6-0.8-5.3-1.4-8.1-1.8c-5.9-0.8-11.9-0.5-17.6,0.9c-3.5,0.8-6.8,2.1-10,3.7
		c-3.9-2.4-8.1-4.2-12.3-5.3c-2-0.6-4-1-6.1-1.2c-7.6-1-15.3-0.2-22.4,2.5c-9,3.3-16.8,9.1-22.4,16.6c-5.7,7.6-9.1,17.4-9.2,27.1
		c-0.1,7.9,5.8,14.7,13.6,15.8c0.6,0.1,1.3,0.1,1.9,0.1c8.4,0.1,15.6-6.7,15.9-15.1c0.1-3.3,1.1-6.1,3.1-8.7c2-2.6,4.7-4.6,7.8-5.6
		c2.3-0.8,4.7-1,6.9-0.7c0.7,0.1,1.4,0.2,2.2,0.5c2.9,0.8,5.6,2.6,7.6,5l0,0c6.1,7.4,17.1,7.9,23.9,1.3l0.5-0.5
		c3.3-3.5,8.5-5.4,13.4-4.8c0.7,0.1,1.4,0.2,2.1,0.4c0.8,0.2,1.5,0.4,2.3,0.5l0,0c5.4,0.7,11.1-1.2,14.4-5.6
		C367.3,82.5,362.8,70.3,352.7,67.1z"></path>
	<g>
		<path class="st7" d="M453.8,82.3c-9-6.9-17.4-17.1-22-30.2c-1-2.9-5.1-3.2-6.5-0.4C419,64,409.4,73.1,399.6,78.7
			c-2.2,1.3-2.4,4.3-0.4,5.9c9,6.9,17.4,17.1,22,30.2c1,2.9,5.1,3.2,6.5,0.4c6.3-12.3,15.9-21.4,25.7-27.1
			C455.6,86.9,455.8,83.8,453.8,82.3z"></path>
		<path class="st7" d="M386,311.8c-0.4-2-3.1-2.5-4.3-0.8c-5.3,7.7-12.4,12.9-19.5,15.9c-1.6,0.7-2,2.7-0.8,3.9
			c5.4,5.4,10.1,12.9,12.1,22c0.4,2,3.1,2.5,4.3,0.8c5.3-7.7,12.4-12.9,19.5-15.9c1.6-0.7,2-2.7,0.8-3.9
			C392.6,328.5,387.9,320.9,386,311.8z"></path>
		<path class="st7" d="M128.4,1.7c-1.1-2.3-4.5-2.2-5.4,0.2c-4.2,10.7-11.4,19-19.1,24.4c-1.7,1.2-1.6,3.8,0.2,4.9
			c8,5,15.7,12.8,20.6,23.2c1.1,2.3,4.5,2.2,5.4-0.2c4.2-10.7,11.4-19,19.1-24.4c1.7-1.2,1.6-3.8-0.1-4.9
			C141,19.9,133.3,12.1,128.4,1.7z"></path>
	</g>
</g>
</svg>
